<svg width="32" height="32" viewBox="0 0 32 32" fill="none" xmlns="http://www.w3.org/2000/svg">
<path d="M3.39398 4.84874e-05C1.52522 4.84874e-05 4.84874e-05 1.52522 4.84874e-05 3.39398V8.24245C-0.000860139 8.3067 0.0110098 8.37048 0.0349679 8.4301C0.058926 8.48973 0.0944945 8.54399 0.139607 8.58974C0.184719 8.6355 0.238475 8.67183 0.297751 8.69663C0.357027 8.72143 0.420641 8.7342 0.484895 8.7342C0.54915 8.7342 0.612764 8.72143 0.67204 8.69663C0.731316 8.67183 0.785072 8.6355 0.830184 8.58974C0.875297 8.54399 0.910865 8.48973 0.934823 8.4301C0.958781 8.37048 0.970651 8.3067 0.969742 8.24245V3.39398C0.969742 2.04917 2.04917 0.969742 3.39398 0.969742H8.24245C8.3067 0.970651 8.37048 0.958781 8.4301 0.934823C8.48973 0.910865 8.54399 0.875297 8.58974 0.830184C8.6355 0.785072 8.67183 0.731316 8.69663 0.67204C8.72143 0.612764 8.7342 0.54915 8.7342 0.484895C8.7342 0.420641 8.72143 0.357027 8.69663 0.297751C8.67183 0.238475 8.6355 0.184719 8.58974 0.139607C8.54399 0.0944945 8.48973 0.058926 8.4301 0.0349679C8.37048 0.0110098 8.3067 -0.000860139 8.24245 4.84874e-05H3.39398ZM23.7576 4.84874e-05C23.6933 -0.000860139 23.6295 0.0110098 23.5699 0.0349679C23.5103 0.058926 23.456 0.0944945 23.4103 0.139607C23.3645 0.184719 23.3282 0.238475 23.3034 0.297751C23.2786 0.357027 23.2658 0.420641 23.2658 0.484895C23.2658 0.54915 23.2786 0.612764 23.3034 0.67204C23.3282 0.731316 23.3645 0.785072 23.4103 0.830184C23.456 0.875297 23.5103 0.910865 23.5699 0.934823C23.6295 0.958781 23.6933 0.970651 23.7576 0.969742H28.606C29.9508 0.969742 31.0303 2.04917 31.0303 3.39398V8.24245C31.0293 8.3067 31.0412 8.37048 31.0652 8.4301C31.0891 8.48973 31.1247 8.54399 31.1698 8.58974C31.2149 8.6355 31.2687 8.67183 31.328 8.69663C31.3872 8.72143 31.4508 8.7342 31.5151 8.7342C31.5794 8.7342 31.643 8.72143 31.7022 8.69663C31.7615 8.67183 31.8153 8.6355 31.8604 8.58974C31.9055 8.54399 31.9411 8.48973 31.965 8.4301C31.989 8.37048 32.0009 8.3067 32 8.24245V3.39398C32 1.52522 30.4748 4.84874e-05 28.606 4.84874e-05H23.7576ZM5.57579 5.33337C5.44003 5.33337 5.33337 5.44003 5.33337 5.57579V20.3636H0.484895C0.216775 20.3636 4.84874e-05 20.5804 4.84874e-05 20.8485C4.84874e-05 21.1166 0.216775 21.3333 0.484895 21.3333H31.5151C31.7832 21.3333 32 21.1166 32 20.8485C32 20.5804 31.7832 20.3636 31.5151 20.3636H26.6666V5.57579C26.6666 5.44003 26.56 5.33337 26.4242 5.33337H25.9394C25.8036 5.33337 25.6969 5.44003 25.6969 5.57579V20.3636H24.7272V5.57579C24.7272 5.44003 24.6206 5.33337 24.4848 5.33337H22.5454C22.4097 5.33337 22.303 5.44003 22.303 5.57579V20.3636H21.3333V5.57579C21.3333 5.44003 21.2267 5.33337 21.0909 5.33337C20.9551 5.33337 20.8485 5.44003 20.8485 5.57579V20.3636H19.8788V5.57579C19.8788 5.44003 19.7721 5.33337 19.6364 5.33337H19.1515C19.0157 5.33337 18.9091 5.44003 18.9091 5.57579V20.3636H17.9394V5.57579C17.9394 5.44003 17.8327 5.33337 17.697 5.33337H17.2121C17.0764 5.33337 16.9697 5.44003 16.9697 5.57579V20.3636H15.5152V5.57579C15.5152 5.44003 15.4085 5.33337 15.2727 5.33337H13.3333C13.1976 5.33337 13.0909 5.44003 13.0909 5.57579V20.3636H11.6364V5.57579C11.6364 5.44003 11.5297 5.33337 11.394 5.33337H10.9091C10.7733 5.33337 10.6667 5.44003 10.6667 5.57579V20.3636H9.69699V5.57579C9.69699 5.44003 9.59032 5.33337 9.45457 5.33337C9.31881 5.33337 9.21214 5.44003 9.21214 5.57579V20.3636H7.7576V5.57579C7.7576 5.44003 7.65093 5.33337 7.51518 5.33337H7.03033C6.89457 5.33337 6.78791 5.44003 6.78791 5.57579V20.3636H5.81821V5.57579C5.81821 5.44003 5.71155 5.33337 5.57579 5.33337ZM5.57579 22.303C5.44197 22.303 5.33337 22.4116 5.33337 22.5454V26.4242C5.33337 26.56 5.44003 26.6666 5.57579 26.6666C5.71155 26.6666 5.81821 26.56 5.81821 26.4242V22.5454C5.81821 22.4116 5.70961 22.303 5.57579 22.303ZM7.03033 22.303C6.89651 22.303 6.78791 22.4116 6.78791 22.5454V26.4242C6.78791 26.558 6.89651 26.6666 7.03033 26.6666H7.51518C7.649 26.6666 7.7576 26.558 7.7576 26.4242V22.5454C7.7576 22.4116 7.649 22.303 7.51518 22.303H7.03033ZM9.45457 22.303C9.32075 22.303 9.21214 22.4116 9.21214 22.5454V26.4242C9.21214 26.56 9.31881 26.6666 9.45457 26.6666C9.59032 26.6666 9.69699 26.56 9.69699 26.4242V22.5454C9.69699 22.4116 9.58838 22.303 9.45457 22.303ZM10.9091 22.303C10.7753 22.303 10.6667 22.4116 10.6667 22.5454V26.4242C10.6667 26.558 10.7753 26.6666 10.9091 26.6666H11.394C11.5278 26.6666 11.6364 26.558 11.6364 26.4242V22.5454C11.6364 22.4116 11.5278 22.303 11.394 22.303H10.9091ZM13.3333 22.303C13.1995 22.303 13.0909 22.4116 13.0909 22.5454V26.4242C13.0909 26.558 13.1995 26.6666 13.3333 26.6666H15.2727C15.4065 26.6666 15.5152 26.558 15.5152 26.4242V22.5454C15.5152 22.4116 15.4065 22.303 15.2727 22.303H13.3333ZM17.2121 22.303C17.0783 22.303 16.9697 22.4116 16.9697 22.5454V26.4242C16.9697 26.558 17.0783 26.6666 17.2121 26.6666H17.697C17.8308 26.6666 17.9394 26.558 17.9394 26.4242V22.5454C17.9394 22.4116 17.8308 22.303 17.697 22.303H17.2121ZM19.1515 22.303C19.0177 22.303 18.9091 22.4116 18.9091 22.5454V26.4242C18.9091 26.558 19.0177 26.6666 19.1515 26.6666H19.6364C19.7702 26.6666 19.8788 26.558 19.8788 26.4242V22.5454C19.8788 22.4116 19.7702 22.303 19.6364 22.303H19.1515ZM21.0909 22.303C20.9571 22.303 20.8485 22.4116 20.8485 22.5454V26.4242C20.8485 26.56 20.9551 26.6666 21.0909 26.6666C21.2267 26.6666 21.3333 26.56 21.3333 26.4242V22.5454C21.3333 22.4116 21.2247 22.303 21.0909 22.303ZM22.5454 22.303C22.4116 22.303 22.303 22.4116 22.303 22.5454V26.4242C22.303 26.558 22.4116 26.6666 22.5454 26.6666H24.4848C24.6186 26.6666 24.7272 26.558 24.7272 26.4242V22.5454C24.7272 22.4116 24.6186 22.303 24.4848 22.303H22.5454ZM25.9394 22.303C25.8055 22.303 25.6969 22.4116 25.6969 22.5454V26.4242C25.6969 26.558 25.8055 26.6666 25.9394 26.6666H26.4242C26.558 26.6666 26.6666 26.558 26.6666 26.4242V22.5454C26.6666 22.4116 26.558 22.303 26.4242 22.303H25.9394ZM0.47732 23.2661C0.348896 23.2681 0.226515 23.321 0.137036 23.4131C0.0475568 23.5052 -0.00171021 23.6291 4.84874e-05 23.7576V28.606C4.84874e-05 30.4748 1.52522 32 3.39398 32H8.24245C8.3067 32.0009 8.37048 31.989 8.4301 31.965C8.48973 31.9411 8.54399 31.9055 8.58974 31.8604C8.6355 31.8153 8.67183 31.7615 8.69663 31.7022C8.72143 31.643 8.7342 31.5794 8.7342 31.5151C8.7342 31.4508 8.72143 31.3872 8.69663 31.328C8.67183 31.2687 8.6355 31.2149 8.58974 31.1698C8.54399 31.1247 8.48973 31.0891 8.4301 31.0652C8.37048 31.0412 8.3067 31.0293 8.24245 31.0303H3.39398C2.04917 31.0303 0.969742 29.9508 0.969742 28.606V23.7576C0.970631 23.6927 0.958494 23.6283 0.93405 23.5682C0.909606 23.5081 0.873352 23.4535 0.827435 23.4077C0.781518 23.3619 0.726873 23.3257 0.666734 23.3014C0.606594 23.2771 0.542185 23.2651 0.47732 23.2661ZM31.5075 23.2661C31.3791 23.2681 31.2567 23.321 31.1672 23.4131C31.0778 23.5052 31.0285 23.6291 31.0303 23.7576V28.606C31.0303 29.9508 29.9508 31.0303 28.606 31.0303H23.7576C23.6933 31.0293 23.6295 31.0412 23.5699 31.0652C23.5103 31.0891 23.456 31.1247 23.4103 31.1698C23.3645 31.2149 23.3282 31.2687 23.3034 31.328C23.2786 31.3872 23.2658 31.4508 23.2658 31.5151C23.2658 31.5794 23.2786 31.643 23.3034 31.7022C23.3282 31.7615 23.3645 31.8153 23.4103 31.8604C23.456 31.9055 23.5103 31.9411 23.5699 31.965C23.6295 31.989 23.6933 32.0009 23.7576 32H28.606C30.4748 32 32 30.4748 32 28.606V23.7576C32.0008 23.6927 31.9887 23.6283 31.9643 23.5682C31.9398 23.5081 31.9036 23.4535 31.8576 23.4077C31.8117 23.3619 31.7571 23.3257 31.6969 23.3014C31.6368 23.2771 31.5724 23.2651 31.5075 23.2661Z" fill="#0398A2"/>
</svg>
