<svg width="90" height="113" viewBox="0 0 90 113" fill="none" xmlns="http://www.w3.org/2000/svg">
<path d="M27 0C25.7607 0 24.75 1.01523 24.75 2.26V20.34C24.75 21.5848 25.7607 22.6 27 22.6H63C64.248 22.6 65.25 21.5848 65.25 20.34V2.26C65.25 1.01523 64.248 0 63 0H27ZM6.75 4.52C3.03223 4.52 0 7.5657 0 11.3V106.22C0 109.954 3.03223 113 6.75 113H83.25C86.9678 113 90 109.954 90 106.22V11.3C90 7.5657 86.9678 4.52 83.25 4.52H69.75V13.56H81V103.96H9V13.56H20.25V4.52H6.75ZM13.5 18.08V99.44H76.5V18.08H69.75V20.34C69.75 24.0743 66.7178 27.12 63 27.12H27C23.2822 27.12 20.25 24.0743 20.25 20.34V18.08H13.5ZM22.5 38.42H40.5V56.5H22.5V38.42ZM27 42.94V51.98H36V42.94H27ZM47.25 45.2H67.5V49.72H47.25V45.2ZM22.5 67.8H40.5V85.88H22.5V67.8ZM27 72.32V81.36H36V72.32H27ZM29.25 74.58H33.75V79.1H29.25V74.58ZM47.25 74.58H67.5V79.1H47.25V74.58Z" fill="#01A9B4"/>
</svg>
