<svg width="114" height="114" viewBox="0 0 114 114" fill="none" xmlns="http://www.w3.org/2000/svg">
<path d="M72.3462 0C65.7521 0 62.1725 1.11328 60.5625 1.50721C58.9525 1.90114 25.2115 10.1737 17.9495 12.0577C11.9549 13.6163 12.9997 16.7506 13.976 22.4712C13.976 22.4712 15.6202 32.3537 16.7163 37.8173C17.8125 43.2809 17.9838 43.9147 23.0192 45.7644C48.3507 55.0646 64.6902 57 69.4688 57C70.8732 57 72.3462 56.0409 72.3462 56.0409C72.3462 56.0409 74.5385 56.6403 74.5385 59.4663C74.5385 63.988 70.1538 68.3726 70.1538 70.7019V73.5793C70.1538 75.6175 74.3329 78.9231 81.6635 78.9231C89.0111 78.9231 92.0769 60.6995 92.0769 60.6995V67.0024C92.0769 75.9943 87.0586 83.3077 84.2668 83.3077H78.9231V84.5409C78.9231 87.6752 70.1538 90.1758 70.1538 96.4615C70.1538 101.086 79.4026 114 83.4447 114H101.942C106.926 114 114 104.648 114 91.8029C114 78.512 103.45 59.9117 103.45 41.7909C103.45 36.4814 104.7 31.5658 106.19 28.9111C107.68 26.2563 109.615 25.9309 109.615 21.649V8.49519C109.615 3.83654 104.734 3.15144 103.587 3.01442C103.09 2.94591 81.4922 0 72.3462 0ZM21.9231 21.9231L62.7548 29.5962L65.7692 47.5457C65.7692 47.5457 40.9345 43.9318 24.8005 36.7212C23.396 30.0757 21.9231 21.9231 21.9231 21.9231ZM0 74.5385V105.231H8.76923V74.5385H0ZM13.1538 74.5385V105.231H17.5385V74.5385H13.1538ZM21.9231 74.5385V105.231H30.6923V74.5385H21.9231ZM35.0769 74.5385V105.231H39.4615V74.5385H35.0769Z" fill="#01A9B4"/>
</svg>
